<svg width="24" height="24" xmlns="http://www.w3.org/2000/svg">
 <title/>

 <g>
  <title>background</title>
  <rect fill="none" id="canvas_background" height="100" width="100" y="-1" x="-1"/>
 </g>
 <g>
  <title>Layer 1</title>
  <path fill="#141321" id="svg_1" d="m24,4.5l0,15c0,0.85 -0.65,1.5 -1.5,1.5l-1.5,0l0,-13.613l-9,6.463l-9,-6.463l0,13.613l-1.5,0c-0.851,0 -1.5,-0.65 -1.5,-1.5l0,-15c0,-0.425 0.162,-0.8 0.431,-1.068c0.269,-0.272 0.645,-0.432 1.069,-0.432l0.5,0l10,7.25l10,-7.25l0.5,0c0.425,0 0.8,0.162 1.069,0.432c0.27,0.268 0.431,0.643 0.431,1.068z"/>
 </g>
</svg>