<svg width="512" height="512" xmlns="http://www.w3.org/2000/svg">

 <g>
  <title>background</title>
  <rect fill="none" id="canvas_background" height="402" width="582" y="-1" x="-1"/>
 </g>
 <g>
  <title>Layer 1</title>
  <path id="svg_2" fill-rule="evenodd" clip-rule="evenodd" d="m43.391,217.477l-17.391,0l0,77.115l48.053,0l0,-14.645l-30.662,0l0,-62.47zm45.646,-3.087c-5.606,0 -9.268,3.775 -9.268,8.695c0,4.804 3.547,8.694 9.039,8.694c5.834,0 9.381,-3.891 9.381,-8.694c-0.113,-4.92 -3.547,-8.695 -9.152,-8.695zm-8.81,80.202l17.392,0l0,-55.947l-17.392,0l0,55.947zm60.863,-57.206c-9.381,0 -14.987,5.377 -17.275,9.039l-0.344,0l-0.802,-7.78l-15.102,0c0.229,5.035 0.457,10.869 0.457,17.848l0,38.1l17.392,0l0,-32.264c0,-1.603 0.114,-3.204 0.571,-4.349c1.259,-3.202 4.12,-6.521 8.926,-6.521c6.292,0 8.809,4.92 8.809,12.127l0,31.006l17.392,0l0,-33.065c-0.001,-16.475 -8.582,-24.141 -20.024,-24.141zm84.318,1.259l-20.937,0l-11.327,16.818c-1.373,2.06 -2.745,4.348 -4.004,6.75l-0.229,0l0,-48.854l-17.391,0l0,81.232l17.392,0l0,-17.506l4.347,-5.491l13.616,22.997l21.395,0l-22.882,-33.294l20.02,-22.652zm28.029,-1.259c-19.448,0 -28.259,15.675 -28.259,29.861c0,17.506 10.87,28.488 29.863,28.488c7.551,0 14.529,-1.144 20.25,-3.547l-2.286,-11.784c-4.693,1.602 -9.498,2.403 -15.447,2.403c-8.124,0 -15.332,-3.434 -15.789,-10.641l36.039,0c0.229,-1.259 0.572,-3.891 0.572,-6.864c-0.001,-13.843 -6.864,-27.916 -24.943,-27.916zm-11.784,22.882c0.457,-4.575 3.433,-11.327 10.755,-11.327c8.009,0 9.838,7.094 9.838,11.327l-20.593,0zm97.819,17.62l0,-64.528l-17.392,0l0,30.205l-0.229,0c-2.518,-3.776 -7.78,-6.293 -14.759,-6.293c-13.386,0 -25.17,10.983 -25.056,29.861c0,17.392 10.641,28.719 23.912,28.719c7.207,0 14.072,-3.205 17.506,-9.384l0.342,0l0.686,8.124l15.447,0c-0.229,-3.776 -0.457,-10.412 -0.457,-16.704zm-17.392,-8.237c0,1.372 -0.113,2.745 -0.343,4.004c-1.03,4.919 -5.148,8.351 -10.183,8.351c-7.207,0 -11.9,-5.95 -11.9,-15.444c0,-8.811 4.005,-15.903 12.016,-15.903c5.378,0 9.152,3.891 10.182,8.466c0.229,1.029 0.229,2.287 0.229,3.204l0,7.322l-0.001,0z"/>
  <path id="svg_4" fill-rule="evenodd" clip-rule="evenodd" fill="#a9fef7" d="m472.968,191.104l-103.197,0c-7.199,0 -13.032,5.854 -13.032,13.075l0,104.641c0,7.222 5.833,13.075 13.032,13.075l103.196,0c7.199,0 13.032,-5.854 13.032,-13.075l0,-104.64c0.001,-7.221 -5.832,-13.076 -13.031,-13.076zm-74.752,103.488l-17.391,0l0,-55.947l17.391,0l0,55.947zm-8.81,-62.813c-5.491,0 -9.038,-3.891 -9.038,-8.694c0,-4.92 3.66,-8.695 9.267,-8.695c5.605,0 9.039,3.775 9.152,8.695c0,4.804 -3.547,8.694 -9.381,8.694zm72.305,62.813l-17.39,0l0,-31.006c0,-7.207 -2.519,-12.127 -8.812,-12.127c-4.805,0 -7.664,3.318 -8.923,6.521c-0.457,1.145 -0.573,2.746 -0.573,4.349l0,32.264l-17.39,0l0,-38.1c0,-6.979 -0.229,-12.813 -0.457,-17.848l15.102,0l0.802,7.78l0.343,0c2.288,-3.662 7.895,-9.039 17.276,-9.039c11.441,0 20.021,7.666 20.021,24.141l0,33.065l0.001,0z"/>
 </g>
</svg>
